<?xml version="1.0" standalone="no"?>
<svg id="cover-standard" viewBox="0 0 1500 500" width="100%" height="100%" xmlns="http://www.w3.org/2000/svg"><rect width="1500" height="500" fill="#05070A"/><g><circle cx="0" cy="500" r="0.5" fill="#D4AF37" opacity="0.7999999999999999"/><circle cx="689.8552360343868" cy="424.27716277180906" r="1.8099459458209919" fill="#D4AF37" opacity="0.7186944914020346"/><circle cx="1225.1399994342128" cy="220.04444339878464" r="1.7763790394587649" fill="#D4AF37" opacity="0.49366535340349205"/><circle cx="1485.9172156497298" cy="50.83783425605597" r="0.5662736724978098" fill="#D4AF37" opacity="0.1771871817596104"/><circle cx="1413.7565713959802" cy="306.32177171727625" r="1.840954472295532" fill="#D4AF37" opacity="0.3572216843705819"/><circle cx="1024.8265384120994" cy="469.02349454170303" r="1.7403193107980037" fill="#D4AF37" opacity="0.6318775794431299"/><circle cx="406.2716303292012" cy="489.66205843261514" r="0.6324179097075893" fill="#D4AF37" opacity="0.7829775399200253"/><circle cx="303.3133876054225" cy="361.9862209334718" r="1.8693440579174598" fill="#D4AF37" opacity="0.7754208254135352"/><circle cx="944.9373446831812" cy="124.66788868795553" r="1.701837186015343" fill="#D4AF37" opacity="0.6109628716844592"/><circle cx="1374.836574095836" cy="150.41126852836192" r="0.698303529133905" fill="#D4AF37" opacity="0.3278075003640063"/><circle cx="1496.6869144765303" cy="379.93215372844384" r="1.8950592566242055" fill="#D4AF37" opacity="0.208267884326523"/><circle cx="1283.186312119626" cy="494.37487639038596" r="1.6610078223295925" fill="#D4AF37" opacity="0.5191924821599276"/><circle cx="782.1721788331064" cy="459.0757258738631" r="0.7638018533728033" fill="#D4AF37" opacity="0.7327380572434565"/><circle cx="105.9028368468137" cy="284.72650949429976" r="1.9180498455440627" fill="#D4AF37" opacity="0.7992976621742204"/><circle cx="594.0953263322442" cy="24.13609658278512" r="1.6179109612165081" fill="#D4AF37" opacity="0.703409404006575"/><circle cx="1160.9791916347817" cy="243.76493118017808" r="0.8287849614242271" fill="#D4AF37" opacity="0.4673482644516447"/><circle cx="1467.7315206436178" cy="437.8316701203501" r="1.9382709230835828" fill="#D4AF37" opacity="0.14595158925722612"/><circle cx="1445.6207157713943" cy="499.28298390104106" r="1.5726307726703146" fill="#D4AF37" opacity="0.3861197068956027"/><circle cx="1099.600972305627" cy="409.505801198756" r="0.893125938527145" fill="#D4AF37" opacity="0.6517249793654379"/><circle cx="507.20223057966314" cy="195.69285398377764" r="1.9556829966222884" fill="#D4AF37" opacity="0.7891637373966762"/><circle cx="198.84135198663915" cy="77.39376574693564" r="1.525255690816143" fill="#D4AF37" opacity="0.7665087577813103"/><circle cx="860.3321064370759" cy="327.03848337312115" r="0.9566991240294517" fill="#D4AF37" opacity="0.58902282520478"/><circle cx="1329.0549679030235" cy="477.62607362403753" r="1.9702520596434325" fill="#D4AF37" opacity="0.29793617971599656"/><circle cx="1499.9868671273775" cy="483.5448581590622" r="1.4758782411944398" fill="#D4AF37" opacity="0.239131327949208"/><circle cx="1334.8284290074544" cy="343.0020883464574" r="1.0193803568085422" fill="#D4AF37" opacity="0.5438784259549249"/><circle cx="870.5854143265346" cy="98.56695331469922" r="1.9819496581501652" fill="#D4AF37" opacity="0.7455119205951289"/><circle cx="211.27712807536378" cy="175.72325916476964" r="1.4245948600546705" fill="#D4AF37" opacity="0.7971920580638003"/><circle cx="495.370373474383" cy="396.7884166404743" r="1.0810472177632395" fill="#D4AF37" opacity="0.6869134673286444"/><circle cx="1091.0241059585317" cy="497.66979536698585" r="1.9907529462373947" fill="#D4AF37" opacity="0.4402940252673434"/><circle cx="1442.22059161053" cy="447.81129846165203" r="1.3715057060112412" fill="#D4AF37" opacity="0.11462378664258457"/><circle cx="1470.2699779232346" cy="262.3146333068922" r="1.141579268903483" fill="#D4AF37" opacity="0.4144435788696128"/><circle cx="1168.8874580661761" cy="2.6348649697492648" r="1.9966447307108062" fill="#D4AF37" opacity="0.6704652440807863"/><circle cx="605.6014584464543" cy="266.78628544150035" r="1.3167144644294853" fill="#D4AF37" opacity="0.7939670041278147"/><circle cx="93.3769281707938" cy="450.1304480444498" r="1.2008582885708203" fill="#D4AF37" opacity="0.7562592206867907"/><circle cx="771.4330760825817" cy="497.1339920525091" r="1.9996135046658996" fill="#D4AF37" opacity="0.5661014666456411"/><circle cx="1276.6402421391763" cy="393.5599506173967" r="1.2603281449237547" fill="#D4AF37" opacity="0.2676676645934015"/><circle cx="1495.800604019718" cy="170.78000486174037" r="1.258768502330312" fill="#D4AF37" opacity="0.26971557958797965"/><circle cx="1379.8086118216358" cy="103.72772693381688" r="1.9996534699614599" fill="#D4AF37" opacity="0.5676736480110776"/><circle cx="954.6536849468113" cy="346.8172275987355" r="1.2024568723631128" fill="#D4AF37" opacity="0.7569904484072997"/><circle cx="315.5969659615063" cy="484.8587903700881" r="1.3151968090829038" fill="#D4AF37" opacity="0.7936874129413478"/><circle cx="394.17309930660036" cy="476.0408200940338" r="1.9967645485435728" fill="#D4AF37" opacity="0.6692397834262442"/><circle cx="1015.6238780387505" cy="323.0342036821593" r="1.1432136717928043" fill="#D4AF37" opacity="0.41255692503780783"/><circle cx="1409.511749877823" cy="72.18332157203504" r="1.3700330019566613" fill="#D4AF37" opacity="0.11673336122495759"/><circle cx="1487.581336977918" cy="200.53126417804668" r="1.9909523825980677" fill="#D4AF37" opacity="0.44213646335929824"/><circle cx="1232.3401969451584" cy="412.50666482205804" r="1.0827142476915559" fill="#D4AF37" opacity="0.6880607678841049"/><circle cx="700.9782177297178" cy="499.5373653226109" r="1.4231699835454565" fill="#D4AF37" opacity="0.7973777014965479"/><circle cx="12.5535262793676" cy="435.2625194082702" r="1.9822283235310896" fill="#D4AF37" opacity="0.7446927816659712"/><circle cx="678.6839357188828" cy="239.15042185919037" r="1.0210767579958309" fill="#D4AF37" opacity="0.5422447918274262"/><circle cx="1217.8539910586114" cy="29.39826955987608" r="1.4745039750747353" fill="#D4AF37" opacity="0.2370626942050806"/><circle cx="1484.1490181823726" cy="289.0424794562506" r="1.9706094097993219" fill="#D4AF37" opacity="0.29995926645198356"/><circle cx="1417.902371027773" cy="461.1382228570316" r="0.9584215833323783" fill="#D4AF37" opacity="0.5905303989440346"/><circle cx="1033.9574182122697" cy="493.55918790141163" r="1.5239347190858583" fill="#D4AF37" opacity="0.7671506069534924"/><circle cx="418.3417054039921" cy="376.48534475404483" r="1.9561183336331602" fill="#D4AF37" opacity="0.7887907595063929"/><circle cx="291.0085646698913" cy="145.37734768823847" r="0.8948710919097719" fill="#D4AF37" opacity="0.6504238177185901"/><circle cx="935.154819419771" cy="129.7641903202183" r="1.5713656752431613" fill="#D4AF37" opacity="0.38419262323351955"/><circle cx="1369.768240505696" cy="365.6012776820115" r="1.9387833967178252" fill="#D4AF37" opacity="0.14805693059952624"/><circle cx="1497.4683944663675" cy="490.70090088247036" r="0.8305494005281185" fill="#D4AF37" opacity="0.469142789620996"/><circle cx="1289.642505574121" cy="467.1714663019294" r="1.616704208881318" fill="#D4AF37" opacity="0.7044762421984462"/><circle cx="792.856496929627" cy="302.13983611964323" r="1.918638454918973" fill="#D4AF37" opacity="0.7993889853263775"/><circle cx="118.42132791014971" cy="45.59266341479695" r="0.7655821321736932" fill="#D4AF37" opacity="0.7318326508549486"/><circle cx="582.5475827828803" cy="224.7641326122828" r="1.659861771924763" fill="#D4AF37" opacity="0.5175006734504844"/><circle cx="1152.9896082695445" cy="427.0418173252209" r="1.895722852160756" fill="#D4AF37" opacity="0.20618268291777833"/><circle cx="1465.090260981476" cy="499.97222994636473" r="0.7000961706719286" fill="#D4AF37" opacity="0.3298016991547178"/><circle cx="1448.919586227668" cy="421.4653794201317" r="1.7007540758258324" fill="#D4AF37" opacity="0.6124028125802111"/><circle cx="1108.10082075252" cy="215.30031160130517" r="1.8700813435854753" fill="#D4AF37" opacity="0.7759720080518129"/><circle cx="518.9985623882576" cy="56.07735801977904" r="0.6342194128779327" fill="#D4AF37" opacity="0.7825119237730129"/><circle cx="186.39164871542826" cy="310.4696810267884" r="1.7393012561838643" fill="#D4AF37" opacity="0.6305033278183826"/><circle cx="850.0185394409201" cy="470.8234235510783" r="1.84176400814489" fill="#D4AF37" opacity="0.3552580379175043"/><circle cx="1323.188417554895" cy="488.5688242162566" r="0.5680805188885163" fill="#D4AF37" opacity="0.1792840651165209"/><circle cx="1499.8818055261727" cy="358.33095467785" r="1.7754280287237565" fill="#D4AF37" opacity="0.49540836461336624"/><circle cx="1340.5083964852683" cy="119.55773891987094" r="1.8108261507939076" fill="#D4AF37" opacity="0.7196787264279845"/><circle cx="880.7777449503792" cy="155.42848165250783" r="0.5018086607635771" fill="#D4AF37" opacity="0.7999968196152691"/><circle cx="223.69810595894407" cy="383.33675975769575" r="1.8090638363293405" fill="#D4AF37" opacity="0.7177046344146174"/><circle cx="483.5038197955745" cy="495.1356496120272" r="1.7773281944776635" fill="#D4AF37" opacity="0.49191876502996357"/><circle cx="1082.3708224493685" cy="456.96223466057404" r="0.5644667297524015" fill="#D4AF37" opacity="0.1750895970171734"/><circle cx="1438.7194518954857" cy="280.37891205058884" r="1.8401429868444183" fill="#D4AF37" opacity="0.3591829934981813"/><circle cx="1472.7054550225112" cy="18.871242562907568" r="1.7413355621229518" fill="#D4AF37" opacity="0.6332469979954992"/><circle cx="1176.713853655456" cy="248.35236304031272" r="0.630616214016027" fill="#D4AF37" opacity="0.7834369499774965"/><circle cx="617.0651732166791" cy="440.3521863965803" r="1.8686047813723232" fill="#D4AF37" opacity="0.7748635053521719"/><circle cx="80.844479217786" cy="498.97314201850287" r="1.7029185488644807" fill="#D4AF37" opacity="0.6095182877643784"/><circle cx="760.6399408628589" cy="406.45944958320104" r="0.6965105992841478" fill="#D4AF37" opacity="0.32581123152902136"/><circle cx="1270.0047541305148" cy="190.83270618530395" r="1.8943936328234354" fill="#D4AF37" opacity="0.21035210192519294"/><circle cx="1494.809525174605" cy="82.59561300573294" r="1.6621521847554965" fill="#D4AF37" opacity="0.5208804817454576"/><circle cx="1384.684005433216" cy="331.0064355591868" r="0.7620211910327499" fill="#D4AF37" opacity="0.7336377140592334"/><circle cx="964.3031596618592" cy="479.15827234731273" r="1.9174591744791203" fill="#D4AF37" opacity="0.7991999846346145"/><circle cx="327.85843937566966" cy="482.1772136814517" r="1.6191160882309152" fill="#D4AF37" opacity="0.7023370827459756"/><circle cx="382.04695973763654" cy="339.1488483486178" r="0.8270200443028106" fill="#D4AF37" opacity="0.4655504012571188"/><circle cx="1006.3500816620224" cy="93.39523085726071" r="1.937756358360064" fill="#D4AF37" opacity="0.1438458303614036"/><circle cx="1405.1682037877345" cy="180.64699409047105" r="1.5738943106091476" fill="#D4AF37" opacity="0.38804419064126594"/><circle cx="1489.1412656090833" cy="399.97280732110397" r="0.8913802135822197" fill="#D4AF37" opacity="0.6530211275902856"/><circle cx="1239.4540792775128" cy="498.1503174138228" r="1.9552455432068818" fill="#D4AF37" opacity="0.7895304529845953"/><circle cx="712.0521017325434" cy="445.44240590374733" r="1.5265751719363165" fill="#D4AF37" opacity="0.7658608521683393"/><circle cx="25.106173288655853" cy="257.813843206539" r="0.9549760007357391" fill="#D4AF37" opacity="0.5875108078063075"/><circle cx="667.4650992398554" cy="7.904302227881667" r="1.9698925719011775" fill="#D4AF37" opacity="0.29591129437085634"/><circle cx="1210.4826821426261" cy="271.2283028982851" r="1.4772510884934669" fill="#D4AF37" opacity="0.241198697432904"/><circle cx="1482.2768684233697" cy="452.39959704050733" r="1.0176832004987817" fill="#D4AF37" opacity="0.545508026641943"/><circle cx="1421.9488583944274" cy="496.54296698753944" r="1.9816688381758412" fill="#D4AF37" opacity="0.7463251938778415"/><circle cx="1043.0158778970936" cy="390.28776787056984" r="1.4260183923036576" fill="#D4AF37" opacity="0.7970000793768358"/><circle cx="430.3824791226287" cy="165.81778027913174" r="1.079379343055552" fill="#D4AF37" opacity="0.6857608335999561"/><circle cx="278.6833590053919" cy="108.87697845477288" r="1.9905513424842995" fill="#D4AF37" opacity="0.4384484949870403"/><circle cx="925.3067943410921" cy="350.5938423189654" r="1.3729771429914424" fill="#D4AF37" opacity="0.11251407917658944"/><circle cx="1364.6039660458182" cy="486.11886436265775" r="1.1399439332277808" fill="#D4AF37" opacity="0.4163273754112552"/><circle cx="1498.144989253058" cy="474.4026878476038" r="1.9965227369196048" fill="#D4AF37" opacity="0.6716855210240379"/><circle cx="1296.0083703000205" cy="318.9940412825483" r="1.3182309323621861" fill="#D4AF37" opacity="0.7942402893655285"/><circle cx="803.485282024547" cy="66.96485925828793" r="1.1992586858069085" fill="#D4AF37" opacity="0.7555220296611248"/><circle cx="130.9315245446479" cy="205.34739931646865" r="1.9995713590956303" fill="#D4AF37" opacity="0.5645250499030974"/><circle cx="570.9590366217294" cy="415.46170711653207" r="1.261886682082884" fill="#D4AF37" opacity="0.2656182260340225"/><circle cx="1144.919267574312" cy="499.73625802646956" r="1.2572077565701063" fill="#D4AF37" opacity="0.27176195240873524"/><circle cx="1462.346383935074" cy="432.6450196421527" r="1.9996912549242059" fill="#D4AF37" opacity="0.5692415797132879"/><circle cx="1452.1169719209202" cy="234.50934765803498" r="1.2040544348596194" fill="#D4AF37" opacity="0.7577157061781219"/><circle cx="1116.52305595554" cy="34.65717697087719" r="1.313677968528947" fill="#D4AF37" opacity="0.7934015183467209"/><circle cx="530.7585426652604" cy="293.326342517572" r="1.9968821902437022" fill="#D4AF37" opacity="0.6680091501959439"/><circle cx="173.92889025987247" cy="463.14949650747207" r="1.144847139519501" fill="#D4AF37" opacity="0.41066743105951165"/><circle cx="839.6454357176337" cy="492.68867475195657" r="1.3685590329688542" fill="#D4AF37" opacity="0.11884278375439765"/><circle cx="1317.229188866115" cy="372.99671570677896" r="1.9911496512763598" fill="#D4AF37" opacity="0.44397579252101327"/><circle cx="1499.6716896824537" cy="140.32727830114442" r="1.0843804304168208" fill="#D4AF37" opacity="0.6892027248410311"/><circle cx="1346.094472501997" cy="134.84607771838054" r="1.4217437648476312" fill="#D4AF37" opacity="0.7975570079881714"/><circle cx="890.9083844206424" cy="369.17572336218984" r="1.9825048339134645" fill="#D4AF37" opacity="0.743867784533731"/><circle cx="236.10341565121306" cy="491.68523617098015" r="1.0227724015942652" fill="#D4AF37" opacity="0.5406071391039755"/><circle cx="471.60340069660157" cy="465.2675445554514" r="1.4731282921323867" fill="#D4AF37" opacity="0.2349928149978109"/><circle cx="1073.6417278686577" cy="297.9243387641926" r="1.970964621849297" fill="#D4AF37" opacity="0.3019805361954054"/><circle cx="1435.1175418519715" cy="40.34242813070431" r="0.9601433761402505" fill="#D4AF37" opacity="0.5920335153250297"/><circle cx="1475.0377813565387" cy="229.45885497770925" r="1.5226122586660114" fill="#D4AF37" opacity="0.7677863938525215"/><circle cx="1184.45783022872" cy="429.7590359819462" r="1.9565515536065645" fill="#D4AF37" opacity="0.7884115227029261"/><circle cx="628.485667705069" cy="499.8889228701625" r="0.8966156711928376" fill="#D4AF37" opacity="0.6491176544731558"/><circle cx="68.30636778157829" cy="418.60677960368673" r="1.570099020167001" fill="#D4AF37" opacity="0.3822629571660663"/><circle cx="749.7935291432688" cy="210.53226419902234" r="1.9392937785177105" fill="#D4AF37" opacity="0.15016183525745985"/><circle cx="1263.280312854374" cy="61.31065269854237" r="0.8323133590491826" fill="#D4AF37" opacity="0.4709339604586571"/><circle cx="1493.7137473580185" cy="314.58310329752356" r="1.615495832979831" fill="#D4AF37" opacity="0.7055375876274294"/><circle cx="1389.462413449814" cy="472.57105339355456" r="1.9192250017480772" fill="#D4AF37" opacity="0.7994739532612496"/><circle cx="973.8850929628977" cy="487.4213196700861" r="0.7673620248470882" fill="#D4AF37" opacity="0.7309215031209687"/><circle cx="340.0969490337067" cy="354.6358849429058" r="1.658714035207241" fill="#D4AF37" opacity="0.5158050709902787"/><circle cx="369.8940609575054" cy="114.4343086524971" r="1.8963844184682914" fill="#D4AF37" opacity="0.2040965166467953"/><circle cx="997.0057988341999" cy="160.428429747566" r="0.701888521291913" fill="#D4AF37" opacity="0.33179380978024325"/><circle cx="1400.7262373549834" cy="386.69878465743227" r="1.6996692198706724" fill="#D4AF37" opacity="0.6138380973671597"/><circle cx="1490.5968922832021" cy="495.84142305948257" r="1.870816637304436" fill="#D4AF37" opacity="0.776517048258511"/><circle cx="1246.4811481630015" cy="454.7979839842218" r="0.6360207209078681" fill="#D4AF37" opacity="0.7820401057674264"/><circle cx="723.0761124094158" cy="276.00017005717456" r="1.7382813997606736" fill="#D4AF37" opacity="0.6291242556088255"/><circle cx="37.657061819370966" cy="13.604292321357471" r="1.842571593215515" fill="#D4AF37" opacity="0.35329207198223767"/><circle cx="656.199512383467" cy="252.91220786667907" r="0.5698872662975631" fill="#D4AF37" opacity="0.18138022803391685"/><circle cx="1203.0265889851228" cy="442.8237882574719" r="1.7744751636553044" fill="#D4AF37" opacity="0.49714778282116845"/><circle cx="1480.300897501236" cy="498.607874092299" r="1.8117044499683654" fill="#D4AF37" opacity="0.7206573305489073"/><circle cx="1425.895750073167" cy="403.3679483647841" r="0.5036173188975585" fill="#D4AF37" opacity="0.7999872784899764"/><circle cx="1052.0012829968307" cy="185.95136064888578" r="1.8081798236014446" fill="#D4AF37" opacity="0.7167091644603792"/><circle cx="442.3931081290827" cy="87.78828552611742" r="1.7782754924004842" fill="#D4AF37" opacity="0.4901686153637037"/><circle cx="266.338633890044" cy="334.93761947937605" r="0.5626596932793894" fill="#D4AF37" opacity="0.17299132994957128"/><circle cx="915.393959219372" cy="480.6372460668965" r="1.83932955297136" fill="#D4AF37" opacity="0.3611419474782519"/><circle cx="1359.3441124306655" cy="480.7560088554987" r="1.7423500086811896" fill="#D4AF37" opacity="0.6346115710318395"/><circle cx="1498.7166514467651" cy="335.2579356239423" r="0.6288143284227153" fill="#D4AF37" opacity="0.7838901497708528"/><circle cx="1302.2834604214597" cy="88.21313403754148" r="1.8678635150248926" fill="#D4AF37" opacity="0.7743000529319862"/><circle cx="814.0577896598945" cy="185.5506627093127" r="1.703998162801061" fill="#D4AF37" opacity="0.6080690739466336"/><circle cx="143.43255051511008" cy="403.1127689364859" r="0.6947173837293816" fill="#D4AF37" opacity="0.32381291078948554"/><circle cx="559.3304995300413" cy="498.5755048165276" r="1.89372598172619" fill="#D4AF37" opacity="0.21243531677489155"/><circle cx="1136.7687348093102" cy="443.02403350782913" r="1.6632948575386968" fill="#D4AF37" opacity="0.5225646568685375"/><circle cx="1459.5000816901727" cy="253.28441508917084" r="0.7602401477424221" fill="#D4AF37" opacity="0.7345316131272657"/><circle cx="1455.2126489008824" cy="13.172861474426801" r="1.9168664425829176" fill="#D4AF37" opacity="0.7990959535951374"/><circle cx="1124.8670880071782" cy="275.64019225699434" r="1.620319588172416" fill="#D4AF37" opacity="0.7012592881606312"/><circle cx="542.4813477218878" cy="454.6184933922673" r="0.8252546517298662" fill="#D4AF37" opacity="0.4637492163742657"/><circle cx="161.4539495325202" cy="495.8967858232681" r="1.9372397032953899" fill="#D4AF37" opacity="0.14173967304669713"/><circle cx="829.2135218168356" cy="386.9722318747552" r="1.5751562872226137" fill="#D4AF37" opacity="0.3899660569830843"/><circle cx="1311.1776992310772" cy="160.837136621915" r="0.8896339196130902" fill="#D4AF37" opacity="0.6543122506152763"/><circle cx="1499.356534313088" cy="114.01413589760357" r="1.9548059740229498" fill="#D4AF37" opacity="0.7898909029378742"/><circle cx="1351.5862657994876" cy="354.33151299997377" r="1.5278931605279968" fill="#D4AF37" opacity="0.7652068960019766"/><circle cx="900.9766231703088" cy="487.32494016748143" r="0.9532522159564739" fill="#D4AF37" opacity="0.5859943604880372"/><circle cx="248.49218826343034" cy="472.7118588488288" r="1.9695309470952127" fill="#D4AF37" opacity="0.2938846288163184"/><circle cx="459.66994970281894" cy="314.91844495639435" r="1.478622514975846" fill="#D4AF37" opacity="0.24326478387036768"/><circle cx="1064.8374336168552" cy="61.73895847360771" r="1.01598529153403" fill="#D4AF37" opacity="0.5471335790806027"/><circle cx="1431.415113763821" cy="210.1407244217191" r="1.9813858640163988" fill="#D4AF37" opacity="0.7471325941240463"/><circle cx="1477.2667935652607" cy="418.37059983544606" r="1.4274405782227577" fill="#D4AF37" opacity="0.7968017671801291"/><circle cx="1192.118845384834" cy="499.87963991957264" r="1.0777106259934017" fill="#D4AF37" opacity="0.6846028771718075"/><circle cx="639.8621420009955" cy="429.97946157443323" r="1.9903475716318924" fill="#D4AF37" opacity="0.43659988928837823"/><circle cx="55.76347205256849" cy="229.84222410822989" r="1.374447310757956" fill="#D4AF37" opacity="0.11040425799749048"/><circle cx="738.8946006247178" cy="39.91223465522499" r="1.1383076671432975" fill="#D4AF37" opacity="0.418208297545027"/><circle cx="1256.467389301923" cy="297.577622825836" r="1.996398567347334" fill="#D4AF37" opacity="0.6729006031675698"/><circle cx="1492.5133473200792" cy="465.10932341247593" r="1.319746210676227" fill="#D4AF37" opacity="0.7945072661711972"/><circle cx="1394.1435011837013" cy="491.76343363880807" r="1.1976580663970255" fill="#D4AF37" opacity="0.7547788820290194"/><circle cx="983.3988137152145" cy="369.46665410430927" r="1.9995270333119273" fill="#D4AF37" opacity="0.5629444121080515"/><circle cx="352.3116377298317" cy="135.26162132987074" r="1.2634441115417563" fill="#D4AF37" opacity="0.26356728253270856"/><circle cx="357.715254175663" cy="139.9129863852998" r="1.255645909912292" fill="#D4AF37" opacity="0.2738067644606601"/><circle cx="987.591684044557" cy="372.7091609238137" r="1.9997268594992024" fill="#D4AF37" opacity="0.5708052475047695"/><circle cx="1396.1861617023644" cy="492.6149549579694" r="1.205650973737658" fill="#D4AF37" opacity="0.7584349874089751"/><circle cx="1491.948115045736" cy="463.3119407903053" r="1.3121579449758438" fill="#D4AF37" opacity="0.7931093229418046"/><circle cx="1253.420911413909" cy="293.6757479092751" r="1.9969976556401563" fill="#D4AF37" opacity="0.66677335557242"/><circle cx="734.0494776200997" cy="35.08771160103982" r="1.1464796697086888" fill="#D4AF37" opacity="0.40877511410420386"/><circle cx="50.20531278618594" cy="234.12808900429647" r="1.36708380119081" fill="#D4AF37" opacity="0.1209520350629756"/><circle cx="644.8879642103553" cy="432.4285169127538" r="1.991344751985464" fill="#D4AF37" opacity="0.44581199603884747"/><circle cx="1195.4862338233972" cy="499.75008802516123" r="1.086045763516586" fill="#D4AF37" opacity="0.6903393278226733"/><circle cx="1478.2212438162962" cy="415.7016808563551" r="1.4203162060347616" fill="#D4AF37" opacity="0.7977299759093464"/><circle cx="1429.7427696170655" cy="205.7408308276644" r="1.9827791888952744" fill="#D4AF37" opacity="0.7430369366950035"/><circle cx="1060.9130041586054" cy="66.5371369768503" r="1.0244672851385639" fill="#D4AF37" opacity="0.5389654826656178"/><circle cx="454.37275117871224" cy="318.6615816096535" r="1.4717511943674875" fill="#D4AF37" opacity="0.23292170913600527"/><circle cx="253.97525396914244" cy="474.26618994203403" r="1.9713176952769187" fill="#D4AF37" opacity="0.30399997057936085"/><circle cx="905.4170083662436" cy="486.2196722591548" r="0.9618644999497692" fill="#D4AF37" opacity="0.5935321606892272"/><circle cx="1353.9890480692254" cy="350.9014221777783" r="1.5212883114793159" fill="#D4AF37" opacity="0.7684161127011209"/><circle cx="1499.1833410073086" cy="109.29816699756728" r="1.9569826559126466" fill="#D4AF37" opacity="0.78802603043233"/><circle cx="1308.4673364205803" cy="165.4105574182294" r="0.8983596738399139" fill="#D4AF37" opacity="0.6478065014979967"/><circle cx="824.5732793194654" cy="390.01785497320634" r="1.568830809283413" fill="#D4AF37" opacity="0.38033072622775854"/><circle cx="155.92353022866678" cy="496.49211833528625" r="1.939802067741199" fill="#D4AF37" opacity="0.15226628410415083"/><circle cx="547.662785990098" cy="452.5832142502357" r="0.8340768344228158" fill="#D4AF37" opacity="0.4727217606885924"/><circle cx="1128.5385808515525" cy="271.5907699056569" r="1.6142858352688947" fill="#D4AF37" opacity="0.7065934306492764"/></g><g transform="translate(0, 250) rotate(15)" opacity="0.25"><circle cx="0" cy="0" r="450" fill="none" stroke="#947A26" stroke-width="4.5"/><circle cx="0" cy="0" r="382.5" fill="none" stroke="#947A26" stroke-width="2.25" stroke-dasharray="22.5 9"/><circle cx="0" cy="0" r="270" fill="none" stroke="#947A26" stroke-width="9"/><circle cx="0" cy="0" r="135" fill="none" stroke="#947A26" stroke-width="4.5"/><line x1="-450" y1="0" x2="450" y2="0" stroke="#947A26" stroke-width="2.25"/><line x1="0" y1="-450" x2="0" y2="450" stroke="#947A26" stroke-width="2.25"/><line x1="-318.15" y1="-318.15" x2="318.15" y2="318.15" stroke="#947A26" stroke-width="2.25"/><line x1="-318.15" y1="318.15" x2="318.15" y2="-318.15" stroke="#947A26" stroke-width="2.25"/><circle cx="270" cy="0" r="22.5" fill="#05070A" stroke="#947A26" stroke-width="4.5"/><circle cx="-189" cy="-189" r="13.5" fill="#947A26"/></g><g transform="translate(1500, 250) rotate(-45)" opacity="0.15"><circle cx="0" cy="0" r="350" fill="none" stroke="#A0AAB5" stroke-width="3.5"/><circle cx="0" cy="0" r="297.5" fill="none" stroke="#A0AAB5" stroke-width="1.75" stroke-dasharray="17.5 7"/><circle cx="0" cy="0" r="210" fill="none" stroke="#A0AAB5" stroke-width="7"/><circle cx="0" cy="0" r="105" fill="none" stroke="#A0AAB5" stroke-width="3.5"/><line x1="-350" y1="0" x2="350" y2="0" stroke="#A0AAB5" stroke-width="1.75"/><line x1="0" y1="-350" x2="0" y2="350" stroke="#A0AAB5" stroke-width="1.75"/><line x1="-247.45" y1="-247.45" x2="247.45" y2="247.45" stroke="#A0AAB5" stroke-width="1.75"/><line x1="-247.45" y1="247.45" x2="247.45" y2="-247.45" stroke="#A0AAB5" stroke-width="1.75"/><circle cx="210" cy="0" r="17.5" fill="#05070A" stroke="#A0AAB5" stroke-width="3.5"/><circle cx="-147" cy="-147" r="10.5" fill="#A0AAB5"/></g><g transform="translate(1350, 150) scale(1.2)" opacity="0.2"><path d="M 0,-30 C -25,-30 -25,-80 0,-80 C 25,-80 25,-30 0,-30 Z" fill="none" stroke="#947A26" stroke-width="8"/><line x1="0" y1="-30" x2="0" y2="60" stroke="#947A26" stroke-width="8" stroke-linecap="round"/><line x1="-35" y1="-10" x2="35" y2="-10" stroke="#947A26" stroke-width="8" stroke-linecap="round"/></g><g transform="translate(150, 400) scale(0.8)" opacity="0.3"><path d="M 0,-30 C -25,-30 -25,-80 0,-80 C 25,-80 25,-30 0,-30 Z" fill="none" stroke="#C0392B" stroke-width="8"/><line x1="0" y1="-30" x2="0" y2="60" stroke="#C0392B" stroke-width="8" stroke-linecap="round"/><line x1="-35" y1="-10" x2="35" y2="-10" stroke="#C0392B" stroke-width="8" stroke-linecap="round"/></g><g transform="translate(1200, 420) scale(0.6)" opacity="0.3"><path d="M 0,-30 C -25,-30 -25,-80 0,-80 C 25,-80 25,-30 0,-30 Z" fill="none" stroke="#3498DB" stroke-width="8"/><line x1="0" y1="-30" x2="0" y2="60" stroke="#3498DB" stroke-width="8" stroke-linecap="round"/><line x1="-35" y1="-10" x2="35" y2="-10" stroke="#3498DB" stroke-width="8" stroke-linecap="round"/></g><g transform="translate(750, 200)"><path d="M 0,-96 L 96,88 L -96,88 Z" fill="#D4AF37" opacity="0.15" filter="blur(20px)"/><path d="M 0,-80 L 80,80 L -80,80 Z" fill="none" stroke="#D4AF37" stroke-width="4" stroke-linejoin="round"/><path d="M 0,-80 L 80,80 L 0,80 Z" fill="#D4AF37" opacity="0.15"/><path d="M -64,48 L 64,48" stroke="#D4AF37" stroke-width="2" opacity="0.5"/><path d="M -48,16 L 48,16" stroke="#D4AF37" stroke-width="2" opacity="0.5"/><g transform="translate(0, -8)"><path d="M -24,0 Q 0,-20 24,0 Q 0,20 -24,0 Z" fill="none" stroke="#D4AF37" stroke-width="3"/><circle cx="0" cy="0" r="6.4" fill="#D4AF37"/><circle cx="1.6" cy="-1.6" r="1.6" fill="#05070A"/></g></g><text x="750" y="360" text-anchor="middle" fill="#F4EDD8" font-size="48" font-family="'Shippori Mincho', 'Noto Serif JP', serif" font-weight="800" letter-spacing="16">砂漠の星読儀</text><text x="750" y="410" text-anchor="middle" fill="#D4AF37" font-size="18" font-family="'Cinzel', 'Trajan Pro', 'Noto Serif', serif" letter-spacing="12">EGYPTIAN CALENDAR ORACLE</text><line x1="600" y1="440" x2="900" y2="440" stroke="#947A26" stroke-width="1" opacity="0.5"/><circle cx="750" cy="440" r="3" fill="#D4AF37"/></svg>